<?xml version="1.0" encoding="utf-8"?>
<!-- Generator: Adobe Illustrator 19.1.0, SVG Export Plug-In . SVG Version: 6.00 Build 0)  -->
<svg version="1.1" id="Layer_1" zoomAndPan="disable"
	 xmlns="http://www.w3.org/2000/svg" xmlns:xlink="http://www.w3.org/1999/xlink" x="0px" y="0px" viewBox="435 -185 1000 500"
	 style="enable-background:new 435 -185 1000 500;" xml:space="preserve">
<style type="text/css">
	.st0{fill:none;}
	.st1{opacity:0.2;}
	.st2{fill:#E92A38;}
	.st3{fill:#6EB4E4;}
	.st4{fill:#DAD9D8;}
	.st5{fill:#FCFDFD;}
</style>
<line class="st0" x1="1535" y1="315" x2="-565" y2="65"/>
<line class="st0" x1="1535" y1="315" x2="-565" y2="-285"/>
<line class="st0" x1="1535" y1="315" x2="-565" y2="-685"/>
<line class="st0" x1="1535" y1="315" x2="185" y2="-685"/>
<line class="st0" x1="1535" y1="315" x2="735" y2="-685"/>
<line class="st0" x1="1535" y1="315" x2="1185" y2="-685"/>
<line class="st0" x1="2185" y1="-185" x2="1185" y2="315"/>
<line class="st0" x1="1935" y1="-185" x2="935" y2="315"/>
<line class="st0" x1="1585" y1="-185" x2="585" y2="315"/>
<line class="st0" x1="1135" y1="-185" x2="135" y2="315"/>
<line class="st0" x1="585" y1="-185" x2="-415" y2="315"/>
<g class="st1">
	<path id="path484" class="st2" d="M937.8-215v-91.2c-207.2,0-374.8,167.7-374.8,374.8h91.2C654.2-88.1,781-215,937.8-215"/>
	<path id="path486" class="st3" d="M654.2,68.6h-91.2c0,207.2,167.6,374.9,374.8,374.9v-91.2C781,352.3,654.2,225.4,654.2,68.6"/>
	<path id="path488" class="st2" d="M937.8-306.2v91.2c156.8,0,283.6,126.9,283.6,283.6h91.2C1312.7-138.5,1145-306.2,937.8-306.2"/>
	<path id="path490" class="st2" d="M937.8,352.3v91.2c207.2,0,374.9-167.7,374.9-374.9h-91.2C1221.4,225.4,1094.6,352.3,937.8,352.3
		"/>
	<path id="path492" class="st3" d="M937.8,257.7v94.5c156.8,0,283.6-126.9,283.6-283.6h-94.6C1126.9,173.1,1042.3,257.7,937.8,257.7
		"/>
	<path id="path494" class="st4" d="M748.7,68.6h-94.5c0,156.8,126.8,283.6,283.6,283.6v-94.5C833.3,257.7,748.7,173.1,748.7,68.6"/>
	<path id="path496" class="st2" d="M1126.9,68.6h94.6c0-156.8-126.9-283.6-283.6-283.6v94.6C1042.3-120.4,1126.9-35.9,1126.9,68.6"
		/>
	<path id="path498" class="st4" d="M654.2,68.6h94.5c0-104.5,84.6-189.1,189.1-189.1V-215C781-215,654.2-88.1,654.2,68.6"/>
	<path id="path500" class="st3" d="M1032.4,68.6h94.5c0-104.5-84.6-189.1-189.1-189.1v94.5C990.1-25.9,1032.4,16.4,1032.4,68.6"/>
	<path id="path502" class="st5" d="M937.8,163.2v94.5c104.5,0,189.1-84.6,189.1-189.1h-94.5C1032.4,120.9,990.1,163.2,937.8,163.2"
		/>
	<path id="path504" class="st5" d="M937.8,257.7v-94.5c-52.3,0-94.6-42.3-94.6-94.6h-94.5C748.7,173.1,833.3,257.7,937.8,257.7"/>
	<path id="path506" class="st3" d="M937.8-25.9v-94.5c-104.5,0-189.1,84.6-189.1,189.1h94.5C843.2,16.4,885.5-25.9,937.8-25.9"/>
</g>
</svg>
