<?xml version="1.0" encoding="utf-8"?>
<!-- Generator: Adobe Illustrator 19.1.0, SVG Export Plug-In . SVG Version: 6.00 Build 0)  -->
<svg version="1.1" id="Layer_1" zoomAndPan="disable"
	 xmlns="http://www.w3.org/2000/svg" xmlns:xlink="http://www.w3.org/1999/xlink" x="0px" y="0px" viewBox="435 -185 1000 500"
	 style="enable-background:new 435 -185 1000 500;" xml:space="preserve">
<style type="text/css">
	.st0{fill:none;}
	.st1{opacity:0.2;}
	.st2{fill:#4887B5;}
	.st3{fill:#E92A38;}
	.st4{fill:#83C44C;}
	.st5{fill:#F3CC1F;}
</style>
<line class="st0" x1="1535" y1="315" x2="-565" y2="65"/>
<line class="st0" x1="1535" y1="315" x2="-565" y2="-285"/>
<line class="st0" x1="1535" y1="315" x2="-565" y2="-685"/>
<line class="st0" x1="1535" y1="315" x2="185" y2="-685"/>
<line class="st0" x1="1535" y1="315" x2="735" y2="-685"/>
<line class="st0" x1="1535" y1="315" x2="1185" y2="-685"/>
<line class="st0" x1="2185" y1="-185" x2="1185" y2="315"/>
<line class="st0" x1="1935" y1="-185" x2="935" y2="315"/>
<line class="st0" x1="1585" y1="-185" x2="585" y2="315"/>
<line class="st0" x1="1135" y1="-185" x2="135" y2="315"/>
<line class="st0" x1="585" y1="-185" x2="-415" y2="315"/>
<g class="st1">
	<path id="path7252" class="st2" d="M24.2,434.6l0.4-1c4.6-10.9,47.1-107.4,135-200.7c88-93.3,220.7-183.3,407.2-183.3
		C760.6,49.7,880.9,104,984.5,159c51.7,27.5,99.2,55.2,149.4,76.2c50.1,21,103.1,35.2,165,35.2c135.3,0,272.3-59.6,398.2-157.7
		c125.9-98.1,241-234.8,332.7-390.1c2.4-4,1-9.2-3-11.6c-4-2.4-9.2-1-11.6,3c-90.7,153.8-204.7,288.9-328.5,385.4
		c-123.9,96.5-257.6,154.1-387.8,154.1c-59.3,0-109.7-13.4-158.5-33.8c-73.1-30.5-142.5-77.1-230.7-116.3
		C821.5,64,714.5,32.6,566.8,32.6c-99.1,0-183.8,24.8-254.8,61.9C205.4,150.3,129.7,233.7,80.5,303c-49.2,69.3-71.9,124.8-72,125.2
		c-1.8,4.3,0.3,9.3,4.6,11.1C17.5,441,22.4,438.9,24.2,434.6"/>
	<path id="path7254" class="st3" d="M2017.7,299.5L2017.7,299.5c-3-3.2-137.4-148.2-500.6-148.3c-9.6,0-19.5,0.1-29.4,0.3
		c-178.1,3.8-275.3,26.5-347.2,48.2c-36,10.9-65.7,21.7-96.3,29.8c-30.5,8.1-61.8,13.5-100.1,13.5c-15.5,0-32.2-0.9-50.5-2.8
		c-51.2-5.4-97.3-30.1-141.7-63.6C685.4,126.6,622.3,56.4,552.1-2C481.8-60.5,405-107,311.2-111.6c-17.6-0.9-34.2-1.3-49.7-1.3
		c-104.8,0-163.6,18.4-195.7,36.1c-16.1,8.8-25.5,17.5-30.9,23.7c-2.7,3.1-4.4,5.6-5.3,7.2c-0.5,0.8-0.8,1.4-1,1.7l-0.1,0.3l0,0
		l-5-2.1l5.1,2l0,0.1l-5-2.1l5.1,2l-15.8-6.2c0.6-1.6,9.5-22,45-41.5c35.5-19.5,97.2-38.2,203.9-38.2c15.8,0,32.7,0.4,50.6,1.3
		c66,3.3,123.9,26.2,176.1,58.7c78.4,48.8,144.7,119,209.4,178.4c32.4,29.7,64.3,56.7,96.9,77.1c32.6,20.4,65.8,34.1,100.8,37.8
		c17.8,1.9,33.9,2.7,48.8,2.7c36.7,0,66.2-5.1,95.7-13c44.3-11.8,89-30,156.2-46.1c67.2-16,156.7-29.7,291.2-32.5
		c10.1-0.2,20-0.3,29.8-0.3c186.8,0,314.8,38,396.3,76.4c81.4,38.3,116.3,76.8,116.9,77.5L2017.7,299.5"/>
	<path id="path7256" class="st4" d="M2013.2,432.8l3-0.5L2013.2,432.8L2013.2,432.8l3-0.5L2013.2,432.8c-0.1-0.2-2.1-11-14-27.6
		c-17.8-24.7-57.9-62.6-147.5-96c-89.6-33.4-228.5-62.2-443.2-68.7c-146.5-4.4-248.3-30.1-324.1-66.6
		C970.7,119.2,916.1,40.7,856.8-22c-29.7-31.4-60.4-58.9-100.4-78.8c-40-19.8-89.6-32-157.5-32.1h-1.2
		C377.1-132.3,233.5-67.6,144.8-3.3c-44.3,32.2-74.9,64.2-94.3,88.2c-9.7,12-16.7,21.9-21.1,28.8c-2.2,3.4-3.9,6.1-4.9,7.9
		c-0.5,0.9-0.9,1.6-1.2,2l-0.3,0.5l-0.1,0.1l-15-7.9C8.4,115.5,43.5,49.2,134.9-17c91.3-66.3,238.9-132.3,462.8-132.7h-0.1h1.3
		c93.2-0.1,155.5,22.8,204.5,57.4c36.7,25.9,65.8,58.1,95.6,91.6c44.7,50.3,91,103.5,166.5,145.7c75.5,42.2,180.6,73.6,343.5,78.6
		c292.5,8.9,447,58.8,529.2,107.5c41.1,24.4,64,48.5,76.6,66.9c12.6,18.4,14.9,31,15.1,32.1L2013.2,432.8"/>
	<path id="path7258" class="st5" d="M2014.1,178.6l-0.8-0.7c-8.2-7.3-82.4-72.4-210-135.5c-127.6-63.1-308.6-124.3-530.6-124.3
		c-3.6,0-7.2,0-10.9,0.1c-232.2,2-544.4,82.4-798,162.4c-126.8,40-239.1,79.8-319.6,109.7c-40.3,14.9-72.6,27.4-94.8,36.1
		c-11.1,4.3-19.7,7.8-25.6,10.1c-5.8,2.3-8.8,3.6-8.8,3.6l-6.4-15.7c0.1-0.1,195.8-79.7,450.1-159.9
		c254.4-80.2,567.2-161,802.9-163.2c3.7,0,7.4-0.1,11-0.1c232.4,0,420.5,66.2,550.5,132.3c130,66.2,202,132.3,202.4,132.7
		L2014.1,178.6"/>
</g>
</svg>
