<?xml version="1.0" encoding="utf-8"?>
<!-- Generator: Adobe Illustrator 19.1.0, SVG Export Plug-In . SVG Version: 6.00 Build 0)  -->
<svg version="1.1" id="Layer_1" zoomAndPan="disable"
	 xmlns="http://www.w3.org/2000/svg" xmlns:xlink="http://www.w3.org/1999/xlink" x="0px" y="0px" viewBox="460 -210 1000 500"
	 style="enable-background:new 460 -210 1000 500;" xml:space="preserve">
<style type="text/css">
	.st0{fill:none;}
	.st1{opacity:0.2;}
	.st2{fill:#6EB4E4;}
	.st3{fill:#6C6F6A;}
	.st4{fill:#E92A38;}
</style>
<line class="st0" x1="1560" y1="290" x2="-540" y2="40"/>
<line class="st0" x1="1560" y1="290" x2="-540" y2="-310"/>
<line class="st0" x1="1560" y1="290" x2="-540" y2="-710"/>
<line class="st0" x1="1560" y1="290" x2="210" y2="-710"/>
<line class="st0" x1="1560" y1="290" x2="760" y2="-710"/>
<line class="st0" x1="1560" y1="290" x2="1210" y2="-710"/>
<line class="st0" x1="2210" y1="-210" x2="1210" y2="290"/>
<line class="st0" x1="1960" y1="-210" x2="960" y2="290"/>
<line class="st0" x1="1610" y1="-210" x2="610" y2="290"/>
<line class="st0" x1="1160" y1="-210" x2="160" y2="290"/>
<line class="st0" x1="610" y1="-210" x2="-390" y2="290"/>
<g class="st1">
	<g>
		<path id="path7240-0" class="st2" d="M1199.6,40.1c0-52.1-17-100.2-45.8-139.2l-31,22.8c24,32.6,38.3,72.9,38.3,116.4
			c0,69.2-36,130.2-90.2,165.2l20.9,32.4C1156.6,195.7,1199.6,122.9,1199.6,40.1"/>
		<path id="path7242-8" class="st3" d="M964.3-156.6c64.9,0,122.6,31.6,158.5,80.3l31-22.8c-42.9-58.2-111.8-96-189.5-96
			c-2.8,0-5.5,0.1-8.3,0.2l1.4,38.5C959.7-156.5,962-156.6,964.3-156.6"/>
		<path id="path7244-7" class="st4" d="M1090.3,175.2c-33,30.8-77.3,49.8-126,49.8c-57.3,0-108.6-26.2-142.5-67.3
			c-26.4-32-42.3-72.9-42.3-117.6c0-101.7,82.6-184.5,184.2-184.9l-0.2-62.2C827.6-206.5,717.3-95.9,717.3,40.1
			c0,59.6,21.2,114.4,56.5,157.1c45.4,54.9,113.9,90,190.6,90c65,0,124.3-25.3,168.4-66.5L1090.3,175.2"/>
	</g>
	<g>
		<path class="st4" d="M886.8-84.3h85c48.1,0,66,7.4,80.1,19c20.4,16.9,30.6,42.5,30.6,68.9c0,26.4-10.9,54.1-27.4,68.2
			c-17.9,15.1-35.5,22.5-75.9,22.5h-28.8v81.5h-63.6V-84.3z M950.4,35.8h27.1c12.7,0,41.5,0,41.5-31.3C1018.9-26,989.4-26,975-26
			h-24.6V35.8z"/>
	</g>
</g>
</svg>
