<svg id="Layer_1" data-name="Layer 1" xmlns="http://www.w3.org/2000/svg" viewBox="0 0 60.27 23.38"><defs><style>.cls-1{fill:#fff;}</style></defs><title>paulo</title><path class="cls-1" d="M9.08.81A8.4,8.4,0,0,1,15,2.66a6.89,6.89,0,0,1,2.18,5.43,7.19,7.19,0,0,1-1.91,5.27,7.64,7.64,0,0,1-5.7,2H6.36v7.85H1.2V.81ZM6.36,11.11H8.21A3.93,3.93,0,0,0,11,10.27a3.11,3.11,0,0,0,.84-2.21A3,3,0,0,0,11,5.88,4,4,0,0,0,8.11,5H6.36Z" transform="translate(-1.2 -0.31)"/><path class="cls-1" d="M17.66,23.19,21.25.81h4.29L31.11,14.2,36.68.81H41l3.59,22.38H39.4L37.62,9.84,32,23.19H30.21L24.61,9.84,22.83,23.19Z" transform="translate(-1.2 -0.31)"/><path class="cls-1" d="M58.28,6.28a5.45,5.45,0,0,0-3.76-1.61,2.8,2.8,0,0,0-2.18.77,2,2,0,0,0-.57,1.41,1.58,1.58,0,0,0,.5,1.24,8.86,8.86,0,0,0,2.82,1.28l1.68.63a9,9,0,0,1,3,1.72,5.56,5.56,0,0,1,1.64,4.15,8,8,0,0,1-2,5.54c-2,2.08-4.86,2.28-6.33,2.28a9.55,9.55,0,0,1-4.43-.94,14.24,14.24,0,0,1-3.29-2.45l2.68-3.69a14,14,0,0,0,2.08,1.71,5.2,5.2,0,0,0,2.82.81,3.62,3.62,0,0,0,2.35-.77,2.35,2.35,0,0,0,.8-1.82,2,2,0,0,0-.77-1.61,11.28,11.28,0,0,0-2.61-1.24l-1.85-.63a7.53,7.53,0,0,1-3.12-1.78,5.52,5.52,0,0,1-1.34-3.89,6.83,6.83,0,0,1,2-5A7.19,7.19,0,0,1,54,.31a10.81,10.81,0,0,1,6.64,2.22Z" transform="translate(-1.2 -0.31)"/></svg>